<mxfile host="app.diagrams.net" modified="2022-03-27T23:10:55.835Z" agent="5.0 (Macintosh; Intel Mac OS X 10_15_7) AppleWebKit/537.36 (KHTML, like Gecko) Chrome/99.0.4844.83 Safari/537.36" etag="XGdsR5uaDz1Af6HFCYDi" version="17.2.4" type="github">
  <diagram id="R2lEEEUBdFMjLlhIrx00" name="Page-1">
    <mxGraphModel dx="3291" dy="2088" grid="1" gridSize="10" guides="1" tooltips="1" connect="1" arrows="1" fold="1" page="1" pageScale="1" pageWidth="850" pageHeight="1100" math="0" shadow="0" extFonts="Permanent Marker^https://fonts.googleapis.com/css?family=Permanent+Marker">
      <root>
        <mxCell id="0" />
        <mxCell id="1" parent="0" />
        <mxCell id="suhASBV4rH8vaRm9QiRD-216" value="" style="group" vertex="1" connectable="0" parent="1">
          <mxGeometry x="-1700" y="-1100" width="1640" height="510" as="geometry" />
        </mxCell>
        <mxCell id="suhASBV4rH8vaRm9QiRD-166" value="index.js" style="shape=ext;double=1;rounded=1;whiteSpace=wrap;html=1;fillColor=#e1d5e7;strokeColor=#9673a6;" vertex="1" parent="suhASBV4rH8vaRm9QiRD-216">
          <mxGeometry x="610" y="60" width="120" height="80" as="geometry" />
        </mxCell>
        <mxCell id="suhASBV4rH8vaRm9QiRD-167" value="App.js" style="shape=ext;double=1;rounded=1;whiteSpace=wrap;html=1;fillColor=#e1d5e7;strokeColor=#9673a6;" vertex="1" parent="suhASBV4rH8vaRm9QiRD-216">
          <mxGeometry x="1070" y="60" width="120" height="80" as="geometry" />
        </mxCell>
        <mxCell id="suhASBV4rH8vaRm9QiRD-168" value="" style="edgeStyle=orthogonalEdgeStyle;rounded=0;orthogonalLoop=1;jettySize=auto;html=1;" edge="1" parent="suhASBV4rH8vaRm9QiRD-216" source="suhASBV4rH8vaRm9QiRD-166" target="suhASBV4rH8vaRm9QiRD-167">
          <mxGeometry relative="1" as="geometry" />
        </mxCell>
        <mxCell id="suhASBV4rH8vaRm9QiRD-169" value="Nav.js" style="rounded=1;whiteSpace=wrap;html=1;fillColor=#ffe6cc;strokeColor=#d79b00;" vertex="1" parent="suhASBV4rH8vaRm9QiRD-216">
          <mxGeometry x="430" y="200" width="120" height="60" as="geometry" />
        </mxCell>
        <mxCell id="suhASBV4rH8vaRm9QiRD-170" value="Home.js" style="rounded=1;whiteSpace=wrap;html=1;fillColor=#ffe6cc;strokeColor=#d79b00;" vertex="1" parent="suhASBV4rH8vaRm9QiRD-216">
          <mxGeometry x="865" y="200" width="120" height="60" as="geometry" />
        </mxCell>
        <mxCell id="suhASBV4rH8vaRm9QiRD-171" value="Faq.js" style="rounded=1;whiteSpace=wrap;html=1;fillColor=#ffe6cc;strokeColor=#d79b00;" vertex="1" parent="suhASBV4rH8vaRm9QiRD-216">
          <mxGeometry x="1030" y="200" width="120" height="60" as="geometry" />
        </mxCell>
        <mxCell id="suhASBV4rH8vaRm9QiRD-191" value="" style="edgeStyle=orthogonalEdgeStyle;rounded=0;orthogonalLoop=1;jettySize=auto;html=1;" edge="1" parent="suhASBV4rH8vaRm9QiRD-216" source="suhASBV4rH8vaRm9QiRD-167" target="suhASBV4rH8vaRm9QiRD-171">
          <mxGeometry relative="1" as="geometry" />
        </mxCell>
        <mxCell id="suhASBV4rH8vaRm9QiRD-172" value="GuestBook.js" style="rounded=1;whiteSpace=wrap;html=1;fillColor=#ffe6cc;strokeColor=#d79b00;" vertex="1" parent="suhASBV4rH8vaRm9QiRD-216">
          <mxGeometry x="1200" y="200" width="120" height="60" as="geometry" />
        </mxCell>
        <mxCell id="suhASBV4rH8vaRm9QiRD-173" value="OurStory.js" style="shape=process;whiteSpace=wrap;html=1;backgroundOutline=1;fillColor=#fff2cc;strokeColor=#d6b656;" vertex="1" parent="suhASBV4rH8vaRm9QiRD-216">
          <mxGeometry x="170" y="308" width="120" height="60" as="geometry" />
        </mxCell>
        <mxCell id="suhASBV4rH8vaRm9QiRD-174" value="WeddingParty.js" style="shape=process;whiteSpace=wrap;html=1;backgroundOutline=1;fillColor=#fff2cc;strokeColor=#d6b656;" vertex="1" parent="suhASBV4rH8vaRm9QiRD-216">
          <mxGeometry x="340" y="308" width="120" height="60" as="geometry" />
        </mxCell>
        <mxCell id="suhASBV4rH8vaRm9QiRD-175" value="Travel.js" style="shape=process;whiteSpace=wrap;html=1;backgroundOutline=1;fillColor=#fff2cc;strokeColor=#d6b656;" vertex="1" parent="suhASBV4rH8vaRm9QiRD-216">
          <mxGeometry x="510" y="308" width="120" height="60" as="geometry" />
        </mxCell>
        <mxCell id="suhASBV4rH8vaRm9QiRD-204" value="" style="edgeStyle=orthogonalEdgeStyle;rounded=0;orthogonalLoop=1;jettySize=auto;html=1;" edge="1" parent="suhASBV4rH8vaRm9QiRD-216" source="suhASBV4rH8vaRm9QiRD-169" target="suhASBV4rH8vaRm9QiRD-175">
          <mxGeometry relative="1" as="geometry">
            <Array as="points">
              <mxPoint x="490" y="280" />
              <mxPoint x="570" y="280" />
            </Array>
          </mxGeometry>
        </mxCell>
        <mxCell id="suhASBV4rH8vaRm9QiRD-176" value="ToDo.js" style="shape=process;whiteSpace=wrap;html=1;backgroundOutline=1;fillColor=#fff2cc;strokeColor=#d6b656;" vertex="1" parent="suhASBV4rH8vaRm9QiRD-216">
          <mxGeometry x="680" y="308" width="120" height="60" as="geometry" />
        </mxCell>
        <mxCell id="suhASBV4rH8vaRm9QiRD-177" value="Registry.js" style="shape=process;whiteSpace=wrap;html=1;backgroundOutline=1;fillColor=#fff2cc;strokeColor=#d6b656;" vertex="1" parent="suhASBV4rH8vaRm9QiRD-216">
          <mxGeometry x="850" y="308" width="120" height="60" as="geometry" />
        </mxCell>
        <mxCell id="suhASBV4rH8vaRm9QiRD-178" value="Photos.js" style="shape=process;whiteSpace=wrap;html=1;backgroundOutline=1;fillColor=#fff2cc;strokeColor=#d6b656;" vertex="1" parent="suhASBV4rH8vaRm9QiRD-216">
          <mxGeometry y="308" width="120" height="60" as="geometry" />
        </mxCell>
        <mxCell id="suhASBV4rH8vaRm9QiRD-179" value="PostImage.js" style="shape=process;whiteSpace=wrap;html=1;backgroundOutline=1;fillColor=#fff2cc;strokeColor=#d6b656;" vertex="1" parent="suhASBV4rH8vaRm9QiRD-216">
          <mxGeometry x="1200" y="280" width="120" height="60" as="geometry" />
        </mxCell>
        <mxCell id="suhASBV4rH8vaRm9QiRD-190" value="" style="edgeStyle=orthogonalEdgeStyle;rounded=0;orthogonalLoop=1;jettySize=auto;html=1;" edge="1" parent="suhASBV4rH8vaRm9QiRD-216" source="suhASBV4rH8vaRm9QiRD-172" target="suhASBV4rH8vaRm9QiRD-179">
          <mxGeometry relative="1" as="geometry" />
        </mxCell>
        <mxCell id="suhASBV4rH8vaRm9QiRD-184" value="Form.js" style="shape=process;whiteSpace=wrap;html=1;backgroundOutline=1;fillColor=#fff2cc;strokeColor=#d6b656;" vertex="1" parent="suhASBV4rH8vaRm9QiRD-216">
          <mxGeometry x="1200" y="360" width="120" height="60" as="geometry" />
        </mxCell>
        <mxCell id="suhASBV4rH8vaRm9QiRD-185" value="" style="edgeStyle=orthogonalEdgeStyle;rounded=0;orthogonalLoop=1;jettySize=auto;html=1;" edge="1" parent="suhASBV4rH8vaRm9QiRD-216" source="suhASBV4rH8vaRm9QiRD-179" target="suhASBV4rH8vaRm9QiRD-184">
          <mxGeometry relative="1" as="geometry" />
        </mxCell>
        <mxCell id="suhASBV4rH8vaRm9QiRD-186" value="PostGreeting.js" style="shape=process;whiteSpace=wrap;html=1;backgroundOutline=1;fillColor=#fff2cc;strokeColor=#d6b656;" vertex="1" parent="suhASBV4rH8vaRm9QiRD-216">
          <mxGeometry x="1200" y="450" width="120" height="60" as="geometry" />
        </mxCell>
        <mxCell id="suhASBV4rH8vaRm9QiRD-187" value="" style="edgeStyle=orthogonalEdgeStyle;rounded=0;orthogonalLoop=1;jettySize=auto;html=1;" edge="1" parent="suhASBV4rH8vaRm9QiRD-216" source="suhASBV4rH8vaRm9QiRD-184" target="suhASBV4rH8vaRm9QiRD-186">
          <mxGeometry relative="1" as="geometry" />
        </mxCell>
        <mxCell id="suhASBV4rH8vaRm9QiRD-188" value="Greetings.js" style="shape=process;whiteSpace=wrap;html=1;backgroundOutline=1;fillColor=#d5e8d4;strokeColor=#82b366;" vertex="1" parent="suhASBV4rH8vaRm9QiRD-216">
          <mxGeometry x="1520" y="450" width="120" height="60" as="geometry" />
        </mxCell>
        <mxCell id="suhASBV4rH8vaRm9QiRD-189" value="" style="edgeStyle=orthogonalEdgeStyle;rounded=0;orthogonalLoop=1;jettySize=auto;html=1;" edge="1" parent="suhASBV4rH8vaRm9QiRD-216" source="suhASBV4rH8vaRm9QiRD-186" target="suhASBV4rH8vaRm9QiRD-188">
          <mxGeometry relative="1" as="geometry" />
        </mxCell>
        <mxCell id="suhASBV4rH8vaRm9QiRD-196" value="" style="shape=partialRectangle;whiteSpace=wrap;html=1;bottom=0;right=0;fillColor=none;" vertex="1" parent="suhASBV4rH8vaRm9QiRD-216">
          <mxGeometry x="500" y="170" width="600" height="20" as="geometry" />
        </mxCell>
        <mxCell id="suhASBV4rH8vaRm9QiRD-198" value="" style="edgeStyle=elbowEdgeStyle;elbow=vertical;endArrow=classic;html=1;rounded=0;entryX=0.5;entryY=0;entryDx=0;entryDy=0;" edge="1" parent="suhASBV4rH8vaRm9QiRD-216" target="suhASBV4rH8vaRm9QiRD-172">
          <mxGeometry width="50" height="50" relative="1" as="geometry">
            <mxPoint x="1130" y="170" as="sourcePoint" />
            <mxPoint x="1180" y="120" as="targetPoint" />
            <Array as="points">
              <mxPoint x="1190" y="170" />
            </Array>
          </mxGeometry>
        </mxCell>
        <mxCell id="suhASBV4rH8vaRm9QiRD-199" value="" style="endArrow=classic;html=1;rounded=0;exitX=0.693;exitY=0.025;exitDx=0;exitDy=0;exitPerimeter=0;entryX=0.423;entryY=-0.042;entryDx=0;entryDy=0;entryPerimeter=0;" edge="1" parent="suhASBV4rH8vaRm9QiRD-216" source="suhASBV4rH8vaRm9QiRD-196" target="suhASBV4rH8vaRm9QiRD-170">
          <mxGeometry width="50" height="50" relative="1" as="geometry">
            <mxPoint x="910" y="160" as="sourcePoint" />
            <mxPoint x="960" y="110" as="targetPoint" />
          </mxGeometry>
        </mxCell>
        <mxCell id="suhASBV4rH8vaRm9QiRD-201" value="" style="endArrow=classic;html=1;rounded=0;exitX=0.693;exitY=0.025;exitDx=0;exitDy=0;exitPerimeter=0;entryX=0.423;entryY=-0.042;entryDx=0;entryDy=0;entryPerimeter=0;" edge="1" parent="suhASBV4rH8vaRm9QiRD-216">
          <mxGeometry width="50" height="50" relative="1" as="geometry">
            <mxPoint x="499.0400000000002" y="166.51" as="sourcePoint" />
            <mxPoint x="499.0000000000002" y="193.49" as="targetPoint" />
          </mxGeometry>
        </mxCell>
        <mxCell id="suhASBV4rH8vaRm9QiRD-206" value="" style="endArrow=classic;html=1;rounded=0;" edge="1" parent="suhASBV4rH8vaRm9QiRD-216">
          <mxGeometry width="50" height="50" relative="1" as="geometry">
            <mxPoint x="390" y="280" as="sourcePoint" />
            <mxPoint x="390" y="308" as="targetPoint" />
          </mxGeometry>
        </mxCell>
        <mxCell id="suhASBV4rH8vaRm9QiRD-207" value="" style="endArrow=classic;html=1;rounded=0;" edge="1" parent="suhASBV4rH8vaRm9QiRD-216">
          <mxGeometry width="50" height="50" relative="1" as="geometry">
            <mxPoint x="229.5" y="280" as="sourcePoint" />
            <mxPoint x="229.5" y="308" as="targetPoint" />
          </mxGeometry>
        </mxCell>
        <mxCell id="suhASBV4rH8vaRm9QiRD-208" value="" style="endArrow=classic;html=1;rounded=0;" edge="1" parent="suhASBV4rH8vaRm9QiRD-216">
          <mxGeometry width="50" height="50" relative="1" as="geometry">
            <mxPoint x="59.5" y="280" as="sourcePoint" />
            <mxPoint x="59.5" y="308" as="targetPoint" />
          </mxGeometry>
        </mxCell>
        <mxCell id="suhASBV4rH8vaRm9QiRD-209" value="" style="endArrow=classic;html=1;rounded=0;" edge="1" parent="suhASBV4rH8vaRm9QiRD-216">
          <mxGeometry width="50" height="50" relative="1" as="geometry">
            <mxPoint x="739.5" y="280" as="sourcePoint" />
            <mxPoint x="739.5" y="308" as="targetPoint" />
          </mxGeometry>
        </mxCell>
        <mxCell id="suhASBV4rH8vaRm9QiRD-210" value="" style="endArrow=classic;html=1;rounded=0;" edge="1" parent="suhASBV4rH8vaRm9QiRD-216">
          <mxGeometry width="50" height="50" relative="1" as="geometry">
            <mxPoint x="909.5" y="280" as="sourcePoint" />
            <mxPoint x="909.5" y="308" as="targetPoint" />
          </mxGeometry>
        </mxCell>
        <mxCell id="suhASBV4rH8vaRm9QiRD-211" value="" style="endArrow=none;html=1;rounded=0;" edge="1" parent="suhASBV4rH8vaRm9QiRD-216">
          <mxGeometry width="50" height="50" relative="1" as="geometry">
            <mxPoint x="570" y="280" as="sourcePoint" />
            <mxPoint x="910" y="280" as="targetPoint" />
          </mxGeometry>
        </mxCell>
        <mxCell id="suhASBV4rH8vaRm9QiRD-212" value="" style="endArrow=none;html=1;rounded=0;" edge="1" parent="suhASBV4rH8vaRm9QiRD-216">
          <mxGeometry width="50" height="50" relative="1" as="geometry">
            <mxPoint x="60" y="280" as="sourcePoint" />
            <mxPoint x="490" y="280" as="targetPoint" />
          </mxGeometry>
        </mxCell>
        <mxCell id="suhASBV4rH8vaRm9QiRD-213" value="CLUnion2022" style="text;strokeColor=none;fillColor=none;html=1;fontSize=24;fontStyle=1;verticalAlign=middle;align=center;" vertex="1" parent="suhASBV4rH8vaRm9QiRD-216">
          <mxGeometry x="850" width="100" height="40" as="geometry" />
        </mxCell>
        <mxCell id="suhASBV4rH8vaRm9QiRD-214" value="Conditional Rendering" style="text;html=1;strokeColor=none;fillColor=none;align=center;verticalAlign=middle;whiteSpace=wrap;rounded=0;" vertex="1" parent="suhASBV4rH8vaRm9QiRD-216">
          <mxGeometry x="1340" y="440" width="160" height="30" as="geometry" />
        </mxCell>
        <mxCell id="suhASBV4rH8vaRm9QiRD-215" value="" style="endArrow=classic;startArrow=classic;html=1;rounded=0;" edge="1" parent="suhASBV4rH8vaRm9QiRD-216">
          <mxGeometry width="50" height="50" relative="1" as="geometry">
            <mxPoint x="1320" y="480" as="sourcePoint" />
            <mxPoint x="1520" y="480" as="targetPoint" />
            <Array as="points" />
          </mxGeometry>
        </mxCell>
        <mxCell id="suhASBV4rH8vaRm9QiRD-219" value="Guest Signing Book Container" style="swimlane;fillColor=#ffe6cc;strokeColor=#d79b00;" vertex="1" parent="1">
          <mxGeometry x="-500" y="-560" width="500" height="440" as="geometry" />
        </mxCell>
        <mxCell id="suhASBV4rH8vaRm9QiRD-220" value="Image Upload" style="shape=partialRectangle;whiteSpace=wrap;html=1;left=0;right=0;fillColor=none;fontStyle=1" vertex="1" parent="suhASBV4rH8vaRm9QiRD-219">
          <mxGeometry y="180" width="500" height="90" as="geometry" />
        </mxCell>
        <mxCell id="suhASBV4rH8vaRm9QiRD-221" value="&lt;b&gt;Form&lt;/b&gt;" style="shape=partialRectangle;whiteSpace=wrap;html=1;left=0;right=0;fillColor=none;" vertex="1" parent="suhASBV4rH8vaRm9QiRD-219">
          <mxGeometry y="270" width="500" height="70" as="geometry" />
        </mxCell>
        <mxCell id="suhASBV4rH8vaRm9QiRD-224" value="Image" style="text;strokeColor=none;fillColor=none;html=1;fontSize=24;fontStyle=1;verticalAlign=middle;align=center;" vertex="1" parent="suhASBV4rH8vaRm9QiRD-219">
          <mxGeometry x="190" y="100" width="100" height="40" as="geometry" />
        </mxCell>
        <mxCell id="suhASBV4rH8vaRm9QiRD-226" value="&lt;b&gt;Submit&lt;/b&gt;" style="text;html=1;align=center;verticalAlign=middle;resizable=0;points=[];autosize=1;strokeColor=none;fillColor=none;" vertex="1" parent="suhASBV4rH8vaRm9QiRD-219">
          <mxGeometry x="220" y="380" width="60" height="20" as="geometry" />
        </mxCell>
        <mxCell id="suhASBV4rH8vaRm9QiRD-227" value="Front-End" style="shape=ext;double=1;rounded=1;whiteSpace=wrap;html=1;fillColor=#fff2cc;strokeColor=#d6b656;" vertex="1" parent="1">
          <mxGeometry x="-1610" y="-677" width="120" height="80" as="geometry" />
        </mxCell>
        <mxCell id="suhASBV4rH8vaRm9QiRD-228" value="Server&lt;br&gt;Express" style="shape=ext;double=1;rounded=1;whiteSpace=wrap;html=1;fillColor=#ffe6cc;strokeColor=#d79b00;" vertex="1" parent="1">
          <mxGeometry x="-1310" y="-677" width="120" height="80" as="geometry" />
        </mxCell>
        <mxCell id="suhASBV4rH8vaRm9QiRD-229" value="Database" style="shape=datastore;whiteSpace=wrap;html=1;fillColor=#008a00;fontColor=#ffffff;strokeColor=#005700;" vertex="1" parent="1">
          <mxGeometry x="-1000" y="-677" width="120" height="80" as="geometry" />
        </mxCell>
        <mxCell id="suhASBV4rH8vaRm9QiRD-232" value="Query" style="text;html=1;align=center;verticalAlign=middle;resizable=0;points=[];autosize=1;strokeColor=none;fillColor=none;" vertex="1" parent="1">
          <mxGeometry x="-1420" y="-657" width="50" height="20" as="geometry" />
        </mxCell>
        <mxCell id="suhASBV4rH8vaRm9QiRD-233" value="Response" style="text;html=1;align=center;verticalAlign=middle;resizable=0;points=[];autosize=1;strokeColor=none;fillColor=none;" vertex="1" parent="1">
          <mxGeometry x="-1430" y="-617" width="70" height="20" as="geometry" />
        </mxCell>
        <mxCell id="suhASBV4rH8vaRm9QiRD-231" value="" style="shape=flexArrow;endArrow=classic;startArrow=classic;html=1;rounded=0;entryX=-0.021;entryY=0.606;entryDx=0;entryDy=0;entryPerimeter=0;exitX=0.996;exitY=0.619;exitDx=0;exitDy=0;exitPerimeter=0;" edge="1" parent="1" source="suhASBV4rH8vaRm9QiRD-227" target="suhASBV4rH8vaRm9QiRD-228">
          <mxGeometry width="100" height="100" relative="1" as="geometry">
            <mxPoint x="-1490" y="-627" as="sourcePoint" />
            <mxPoint x="-1390" y="-727" as="targetPoint" />
          </mxGeometry>
        </mxCell>
        <mxCell id="suhASBV4rH8vaRm9QiRD-234" value="" style="shape=flexArrow;endArrow=classic;html=1;rounded=0;entryX=0.004;entryY=0.606;entryDx=0;entryDy=0;entryPerimeter=0;" edge="1" parent="1" target="suhASBV4rH8vaRm9QiRD-229">
          <mxGeometry width="50" height="50" relative="1" as="geometry">
            <mxPoint x="-1190" y="-627" as="sourcePoint" />
            <mxPoint x="-1140" y="-677" as="targetPoint" />
          </mxGeometry>
        </mxCell>
        <mxCell id="suhASBV4rH8vaRm9QiRD-235" value="Image Upload" style="swimlane;childLayout=stackLayout;horizontal=1;startSize=30;horizontalStack=0;rounded=1;fontSize=14;fontStyle=0;strokeWidth=2;resizeParent=0;resizeLast=1;shadow=0;dashed=0;align=center;gradientColor=#FFFFFF;" vertex="1" parent="1">
          <mxGeometry x="-1060" y="-20" width="160" height="120" as="geometry" />
        </mxCell>
        <mxCell id="suhASBV4rH8vaRm9QiRD-236" value="+ image: img" style="align=left;strokeColor=none;fillColor=none;spacingLeft=4;fontSize=12;verticalAlign=top;resizable=0;rotatable=0;part=1;" vertex="1" parent="suhASBV4rH8vaRm9QiRD-235">
          <mxGeometry y="30" width="160" height="90" as="geometry" />
        </mxCell>
        <mxCell id="suhASBV4rH8vaRm9QiRD-237" value="GuestBook Form" style="swimlane;childLayout=stackLayout;horizontal=1;startSize=30;horizontalStack=0;rounded=1;fontSize=14;fontStyle=0;strokeWidth=2;resizeParent=0;resizeLast=1;shadow=0;dashed=0;align=center;gradientColor=#FFFFFF;" vertex="1" parent="1">
          <mxGeometry x="-780" y="30" width="260" height="130" as="geometry" />
        </mxCell>
        <mxCell id="suhASBV4rH8vaRm9QiRD-238" value="+ _id: img = ref(image_upload)&#xa;+ name: String&#xa;+relationshipToCouple: String&#xa;+ messageToBride: String&#xa;+ messageToGroom: String&#xa;+ messageToCouple: String" style="align=left;strokeColor=none;fillColor=none;spacingLeft=4;fontSize=12;verticalAlign=top;resizable=0;rotatable=0;part=1;" vertex="1" parent="suhASBV4rH8vaRm9QiRD-237">
          <mxGeometry y="30" width="260" height="100" as="geometry" />
        </mxCell>
        <mxCell id="suhASBV4rH8vaRm9QiRD-239" value="" style="edgeStyle=entityRelationEdgeStyle;fontSize=12;html=1;endArrow=ERmandOne;startArrow=ERmandOne;rounded=0;entryX=0;entryY=0.5;entryDx=0;entryDy=0;exitX=1;exitY=0.25;exitDx=0;exitDy=0;" edge="1" parent="1" source="suhASBV4rH8vaRm9QiRD-236" target="suhASBV4rH8vaRm9QiRD-238">
          <mxGeometry width="100" height="100" relative="1" as="geometry">
            <mxPoint x="-900" y="40" as="sourcePoint" />
            <mxPoint x="-800" y="-60" as="targetPoint" />
          </mxGeometry>
        </mxCell>
        <mxCell id="suhASBV4rH8vaRm9QiRD-240" value="Image Upload" style="swimlane;childLayout=stackLayout;horizontal=1;startSize=30;horizontalStack=0;rounded=1;fontSize=14;fontStyle=0;strokeWidth=2;resizeParent=0;resizeLast=1;shadow=0;dashed=0;align=center;gradientColor=#FFFFFF;" vertex="1" parent="1">
          <mxGeometry x="-370" y="30" width="160" height="120" as="geometry" />
        </mxCell>
        <mxCell id="suhASBV4rH8vaRm9QiRD-241" value="+ image: img" style="align=left;strokeColor=none;fillColor=none;spacingLeft=4;fontSize=12;verticalAlign=top;resizable=0;rotatable=0;part=1;" vertex="1" parent="suhASBV4rH8vaRm9QiRD-240">
          <mxGeometry y="30" width="160" height="90" as="geometry" />
        </mxCell>
      </root>
    </mxGraphModel>
  </diagram>
</mxfile>
